<svg version="1.0" xmlns="http://www.w3.org/2000/svg"
 width="1460" height="162" viewBox="0 0 1460 162"
 preserveAspectRatio="xMidYMid meet">

<g transform="translate(0.000000,500.000000) scale(0.100000,-0.100000)"
fill="#000000" stroke="none">
<path d="M1900 3139 c-56 -22 -98 -61 -119 -109 -20 -46 -21 -67 -21 -345 l0
-296 37 28 36 28 666 5 c515 4 671 8 688 18 49 28 53 52 53 334 0 243 -2 265
-19 292 -38 57 -16 55 -681 55 -380 0 -625 -4 -640 -10z m630 -124 c0 -19 5
-37 10 -40 6 -3 10 -1 10 4 0 23 51 10 86 -21 95 -84 99 -224 8 -314 -82 -82
-218 -81 -295 3 -66 70 -83 166 -44 243 36 71 119 124 140 90 9 -14 23 -12 22
3 -1 45 5 66 21 69 30 7 42 -3 42 -37z"/>
<path d="M2414 2907 c-52 -53 -65 -91 -53 -148 11 -48 30 -74 71 -95 35 -18
102 -18 138 1 61 32 89 127 55 191 -12 23 -83 98 -86 91 0 -1 -2 -9 -4 -18 -9
-47 -16 -58 -37 -54 -27 6 -39 24 -33 53 5 31 -4 27 -51 -21z"/>
<path d="M1372 2078 c3 -135 4 -143 23 -143 16 0 21 8 25 45 l5 45 73 5 c88 6
102 19 102 96 0 45 -4 56 -26 73 -23 18 -41 21 -116 21 l-89 0 3 -142z m159
92 c12 -7 19 -21 19 -40 0 -54 -7 -60 -71 -60 l-59 0 0 48 c0 27 3 52 7 55 10
11 82 8 104 -3z"/>
<path d="M2037 2214 c-14 -15 -6 -43 14 -49 23 -8 41 9 36 35 -2 16 -38 26
-50 14z"/>
<path d="M2913 2087 c-29 -73 -53 -138 -53 -145 0 -6 9 -12 21 -12 13 0 25 11
35 35 14 34 15 35 73 35 59 0 60 0 71 -35 11 -33 41 -48 53 -27 6 9 -86 247
-103 267 -29 35 -44 17 -97 -118z m91 30 c32 -77 31 -77 -13 -77 -23 0 -41 4
-41 8 0 13 31 102 36 102 2 0 10 -15 18 -33z"/>
<path d="M3150 2075 c0 -146 0 -146 23 -143 18 2 23 11 27 48 l5 45 72 5 c87
6 102 20 103 96 0 76 -18 88 -136 92 l-94 4 0 -147z m158 99 c20 -6 23 -12 20
-53 l-3 -46 -62 -3 -63 -3 0 49 c0 27 3 52 7 55 8 9 70 9 101 1z"/>
<path d="M3445 2208 c-29 -16 -35 -28 -35 -69 0 -47 22 -66 91 -79 82 -16 89
-19 89 -45 0 -49 -85 -62 -124 -20 -45 48 -79 16 -38 -35 19 -24 98 -38 144
-27 39 10 68 44 68 81 0 43 -32 72 -90 81 -72 12 -90 22 -90 49 0 28 16 36 70
36 29 0 42 -5 50 -20 14 -26 50 -27 50 -1 0 35 -47 61 -109 61 -31 0 -65 -6
-76 -12z"/>
<path d="M2620 2169 c0 -22 -5 -32 -20 -36 -11 -3 -20 -14 -20 -24 0 -12 7
-19 20 -19 18 0 20 -7 20 -64 0 -72 8 -84 64 -93 32 -5 36 -3 36 16 0 14 -8
23 -25 27 -23 6 -25 11 -25 60 0 51 1 54 25 54 18 0 25 5 25 20 0 15 -7 20
-25 20 -22 0 -25 4 -25 35 0 31 -3 35 -25 35 -21 0 -25 -5 -25 -31z"/>
<path d="M1708 2126 c-16 -8 -28 -11 -28 -5 0 5 -11 9 -25 9 l-26 0 3 -97 c3
-93 4 -98 26 -101 21 -3 22 0 22 62 0 72 14 96 56 96 20 0 25 4 22 22 -4 28
-17 31 -50 14z"/>
<path d="M1804 2117 c-26 -22 -29 -32 -29 -82 0 -50 3 -60 28 -81 37 -32 112
-34 151 -3 23 18 26 28 26 79 0 79 -19 102 -92 108 -47 4 -58 1 -84 -21z m114
-29 c7 -7 12 -30 12 -53 0 -47 -14 -65 -49 -65 -43 0 -56 15 -56 65 0 30 5 49
15 55 21 14 64 12 78 -2z"/>
<path d="M2173 2128 c-30 -15 -46 -60 -40 -114 6 -59 24 -76 85 -82 54 -5 112
17 112 43 0 17 -45 21 -55 5 -9 -14 -68 -13 -83 2 -29 29 -13 38 69 38 l81 0
-6 38 c-10 52 -46 82 -99 81 -23 0 -52 -5 -64 -11z m106 -47 c14 -26 5 -31
-51 -31 -33 0 -48 4 -48 13 0 38 81 53 99 18z"/>
<path d="M2394 2116 c-24 -20 -28 -31 -28 -81 -1 -50 2 -59 27 -81 38 -33 105
-33 143 -1 18 16 25 30 21 40 -9 23 -34 21 -47 -3 -7 -13 -21 -20 -38 -20 -44
0 -57 15 -57 65 0 49 13 65 52 65 12 0 31 -9 41 -20 12 -13 25 -18 35 -14 47
18 -13 74 -79 74 -31 0 -51 -7 -70 -24z"/>
<path d="M2040 2036 c0 -108 -10 -146 -40 -146 -13 0 -20 -7 -20 -20 0 -14 7
-20 21 -20 23 0 60 18 71 34 4 6 8 64 8 129 0 110 -1 117 -20 117 -19 0 -20
-7 -20 -94z"/>
</g>
</svg>
